# xmcd
#
# Track frame offsets: 
#        150
#        42444
#        88231
#        141201
#        181752
#
# Disc length: 2968 seconds
#
# Revision: 1
# Processed by: cddbd v1.5.2PL0 Copyright (c) Steve Scherf et al.
# Submitted via: ExactAudioCopy v0.99pb4
#
DISCID=3f0b9605
DTITLE=Sam Rivers - Contours
DYEAR=1965
DGENRE=Jazz
TTITLE0=Point of Many Returns
TTITLE1=Dance of the Tripedal
TTITLE2=Euterpe
TTITLE3=Mellifluous Cacophony
TTITLE4=Mellifluous Cacophony (alt take)
EXTD=YEAR: 1965
EXTT0=
EXTT1=
EXTT2=
EXTT3=
EXTT4=
PLAYORDER=
